<svg xmlns="http://www.w3.org/2000/svg" xmlns:xlink="http://www.w3.org/1999/xlink" version="1.1" x="0px" y="0px" viewBox="0 0 48 48" enable-background="new 0 0 48 48" xml:space="preserve"><g><g><path d="M9.601,27.783C4.307,27.783,0,32.09,0,37.384c0,5.295,4.307,9.602,9.601,9.602s9.602-4.307,9.602-9.602    C19.203,32.09,14.896,27.783,9.601,27.783z"/><path d="M38.398,27.783c-5.293,0-9.6,4.307-9.6,9.601c0,5.295,4.307,9.602,9.6,9.602c5.295,0,9.602-4.307,9.602-9.602    C48,32.09,43.693,27.783,38.398,27.783z"/></g><path d="M37.011,18.153c-0.296-0.717-0.853-1.276-1.534-1.558c-2.449-1.128-14.799-6.753-17.49-6.753h-0.001   c-0.449,0.014-1.656,0.462-1.972,0.831l-6.967,7.968l-0.099,0.134c-0.103,0.167-0.998,1.674-1,3.172   c-0.153,1.445,0.636,2.799,1.964,3.369l7.951,3.408l4.079,9.831c0.51,1.233,1.702,2.031,3.037,2.031   c0.429,0,0.851-0.085,1.261-0.253c0.81-0.337,1.442-0.969,1.777-1.78c0.337-0.813,0.336-1.707-0.001-2.519l-5.103-12.301   l-4.011-1.719l3.87-4.425l10.438,4.354c1.471,0.601,3.198-0.127,3.796-1.565C37.306,19.662,37.307,18.871,37.011,18.153z"/><path d="M26.747,1.015c-2.844,0-5.157,2.313-5.157,5.156c0,2.842,2.313,5.154,5.157,5.154c2.842,0,5.155-2.312,5.155-5.154   C31.902,3.329,29.589,1.015,26.747,1.015z"/><path d="M8.827,20.91c-1.122-0.59-4.799-2.678-4.997-4.76c-0.203-2.073,3.745-4.958,5.452-6.101L9.44,9.962   c0.158-0.068,3.89-1.631,6.91,1.62l-1.45,1.347c-1.883-2.025-4.159-1.338-4.605-1.177c-2.321,1.571-4.452,3.57-4.494,4.224   c0.058,0.602,1.941,2.126,3.948,3.182L8.827,20.91z"/></g></svg>