<svg xmlns="http://www.w3.org/2000/svg" xmlns:xlink="http://www.w3.org/1999/xlink" version="1.1" x="0px" y="0px" viewBox="0 0 48 48" enable-background="new 0 0 48 48" xml:space="preserve"><g><path d="M19.31,48.001H7.444c-2.122,0-3.849-1.728-3.849-3.851v-24.52c0-0.758,0.413-1.831,5.219-4.98V1c0-0.552,0.448-1,1-1h7.125   c0.552,0,1,0.448,1,1v13.616c4.806,3.171,5.219,4.251,5.22,5.014V44.15C23.159,46.273,21.433,48.001,19.31,48.001z M5.595,19.733   V44.15c0,1.021,0.829,1.851,1.849,1.851H19.31c1.02,0,1.849-0.83,1.849-1.851V19.731c-0.123-0.217-0.839-1.184-4.765-3.736   c-0.284-0.185-0.455-0.5-0.455-0.838V2h-5.125v13.193c0,0.34-0.172,0.656-0.458,0.84C6.444,18.558,5.721,19.516,5.595,19.733z"/><path d="M40.936,48.001H30.652c-1.913,0-3.469-1.556-3.469-3.469V23.278c0-0.721,0.358-1.656,4.522-4.387V7.131   c0-0.552,0.447-1,1-1h6.175c0.553,0,1,0.448,1,1V18.86c4.165,2.756,4.523,3.695,4.523,4.417v21.255   C44.404,46.445,42.849,48.001,40.936,48.001z M29.184,23.406v21.126c0,0.81,0.659,1.469,1.469,1.469h10.283   c0.81,0,1.469-0.659,1.469-1.469v-21.13c-0.139-0.215-0.833-1.06-4.068-3.164c-0.284-0.185-0.455-0.5-0.455-0.838V8.131h-4.175   v11.303c0,0.34-0.173,0.657-0.458,0.841C30.023,22.352,29.325,23.19,29.184,23.406z"/><path d="M13.377,40.271c-3.158,0-5.631-3.793-5.631-8.635s2.473-8.635,5.631-8.635s5.631,3.793,5.631,8.635   S16.535,40.271,13.377,40.271z M13.377,25.002c-1.968,0-3.631,3.038-3.631,6.635s1.663,6.635,3.631,6.635s3.631-3.038,3.631-6.635   S15.345,25.002,13.377,25.002z"/><path d="M16.275,6.377h-5.903c-0.552,0-1-0.448-1-1s0.448-1,1-1h5.903c0.552,0,1,0.448,1,1S16.827,6.377,16.275,6.377z"/><path d="M38.745,12.383h-5.903c-0.553,0-1-0.448-1-1s0.447-1,1-1h5.903c0.553,0,1,0.448,1,1S39.298,12.383,38.745,12.383z"/><path d="M43.404,42.104h-9.742c-0.553,0-1-0.447-1-1v-15.98c0-0.553,0.447-1,1-1h9.742c0.553,0,1,0.447,1,1v15.98   C44.404,41.656,43.957,42.104,43.404,42.104z M34.662,40.104h7.742v-13.98h-7.742V40.104z"/></g></svg>