<svg xmlns="http://www.w3.org/2000/svg" xmlns:xlink="http://www.w3.org/1999/xlink" version="1.1" x="0px" y="0px" viewBox="0 0 64 64" enable-background="new 0 0 64 64" xml:space="preserve"><g><g><path fill="#000000" d="M12.934,3.263c-0.047,3.93-0.144,12.527-0.144,16.228c0,5.123,0.887,8.198,0.924,8.327l0.126,0.43    l0.298,0.335c4.636,5.213,5.494,12.673,5.571,13.446v18.289c-1.466,0.215-4.258,0.418-8.126,0.418s-6.66-0.203-8.125-0.418V42.027    c0.079-0.785,0.939-8.236,5.569-13.445l0.298-0.334l0.126-0.43c0.038-0.128,0.926-3.205,0.926-8.327    c0-3.701-0.097-12.298-0.145-16.228h1.351H12.934 M14.958,1.263h-3.374H8.209c0,0,0.169,13.333,0.169,18.228    c0,4.894-0.844,7.763-0.844,7.763c-5.4,6.075-6.075,14.684-6.075,14.684v19.914c1.013,0.59,5.569,0.885,10.125,0.885    s9.112-0.295,10.126-0.885V41.938c0,0-0.675-8.608-6.077-14.684c0,0-0.843-2.869-0.843-7.763    C14.79,14.595,14.958,1.263,14.958,1.263L14.958,1.263z"/></g><rect x="1.875" y="42.1" fill="#000000" width="19.368" height="2"/><rect x="1.875" y="54.128" fill="#000000" width="19.368" height="2"/><rect x="8.267" y="5.106" fill="#000000" width="6.243" height="2"/><g><g><path fill="#000000" d="M60.516,28.762c-0.412,6.202-5.59,11.122-11.895,11.122s-11.482-4.92-11.895-11.122H60.516 M62.48,26.762     H34.762c-0.035,0.396-0.062,0.795-0.062,1.202c0,7.688,6.231,13.92,13.921,13.92s13.92-6.229,13.92-13.92     C62.541,27.558,62.516,27.158,62.48,26.762L62.48,26.762z"/></g><rect x="47.621" y="41.223" fill="#000000" width="2" height="19.594"/><rect x="43.293" y="59.816" fill="#000000" width="10.657" height="2"/><path fill="#000000" d="M34.7,38.33c-8.228,0-14.921-6.693-14.921-14.92c0-0.435,0.028-0.861,0.063-1.285l0.076-0.918h29.558    l0.081,0.912c0.038,0.426,0.064,0.855,0.064,1.292c0,1.598-0.253,3.176-0.752,4.691l-1.9-0.626    c0.433-1.313,0.652-2.68,0.652-4.065c0-0.068-0.001-0.136-0.002-0.203H21.781c-0.001,0.067-0.002,0.135-0.002,0.203    c0,7.124,5.796,12.92,12.921,12.92c1.293,0,2.568-0.19,3.792-0.565l0.586,1.912C37.665,38.11,36.191,38.33,34.7,38.33z"/><rect x="33.7" y="36.669" fill="#000000" width="2" height="19.593"/><rect x="29.373" y="55.262" fill="#000000" width="10.654" height="2"/></g></g></svg>