<svg xmlns="http://www.w3.org/2000/svg" xmlns:xlink="http://www.w3.org/1999/xlink" version="1.1" x="0px" y="0px" viewBox="0 0 48 48" enable-background="new 0 0 48 48" xml:space="preserve"><g><g><path d="M37.841,24.41L37.841,24.41c-5.913,0-11.698-6.202-13.756-14.746c-0.063-0.26-0.019-0.534,0.122-0.761    c0.14-0.227,0.366-0.388,0.626-0.448l21.346-4.905c0.257-0.06,0.533-0.013,0.759,0.13s0.385,0.37,0.441,0.631    c2.119,9.676-1.26,18.413-7.691,19.891C39.085,24.339,38.463,24.41,37.841,24.41z M26.285,10.173    c2.002,7.042,6.852,12.236,11.555,12.237h0.001c0.472,0,0.942-0.053,1.399-0.158c5.054-1.162,7.813-8.459,6.382-16.522    L26.285,10.173z"/><path d="M42.14,35.869c-0.455,0-0.867-0.313-0.974-0.776l-2.57-11.177c-0.124-0.538,0.212-1.075,0.751-1.199    c0.539-0.121,1.075,0.212,1.198,0.75l2.57,11.178c0.124,0.538-0.212,1.074-0.751,1.198C42.289,35.861,42.214,35.869,42.14,35.869z    "/><path d="M37.97,36.986c-0.455,0-0.867-0.313-0.974-0.776c-0.124-0.538,0.213-1.074,0.751-1.198l8.408-1.932    c0.538-0.124,1.074,0.213,1.198,0.751s-0.213,1.074-0.751,1.198l-8.408,1.932C38.119,36.979,38.044,36.986,37.97,36.986z"/><path d="M31.113,15.337c-0.11,0-0.222-0.004-0.335-0.015c-0.662-0.059-1.275-0.279-1.868-0.493    c-0.689-0.248-1.338-0.483-1.867-0.372c-0.538,0.119-1.071-0.23-1.186-0.771c-0.114-0.541,0.23-1.071,0.771-1.186    c1.082-0.23,2.079,0.129,2.958,0.446c0.495,0.178,0.963,0.347,1.366,0.382c0.924,0.082,1.728-0.576,2.588-1.27l0.188-0.151    c1.735-1.391,3.498-1.118,5.057-0.877c0.565,0.087,1.1,0.17,1.644,0.185c0.586,0.016,1.033-0.08,1.284-0.281    c0.287-0.229,0.518-0.591,0.762-0.975c0.238-0.373,0.483-0.758,0.824-1.112c0.644-0.667,2.56-1.561,3.779-0.816    c0.471,0.288,0.62,0.903,0.332,1.375c-0.288,0.471-0.903,0.619-1.375,0.332c-0.2-0.05-1.055,0.247-1.295,0.497    c-0.203,0.21-0.385,0.497-0.578,0.8c-0.307,0.481-0.654,1.026-1.2,1.463c-0.636,0.508-1.494,0.755-2.591,0.718    c-0.667-0.019-1.29-0.115-1.892-0.208c-1.566-0.242-2.501-0.339-3.501,0.462l-0.182,0.147    C33.839,14.389,32.663,15.337,31.113,15.337z"/></g><g><path d="M11.074,32.042C11.073,32.042,11.073,32.042,11.074,32.042c-0.271,0-0.542-0.013-0.813-0.04    C3.695,31.354-0.766,23.116,0.107,13.249c0.023-0.266,0.152-0.512,0.358-0.682s0.469-0.253,0.737-0.225l21.796,2.157    c0.266,0.026,0.51,0.158,0.678,0.365c0.168,0.207,0.247,0.473,0.218,0.739C22.868,24.975,17.356,32.042,11.074,32.042z     M2.03,14.434c-0.396,8.18,3.268,15.068,8.428,15.578c5.227,0.516,10.109-5.572,11.317-13.624L2.03,14.434z"/><path d="M9.184,43.896c-0.033,0-0.066-0.002-0.1-0.005c-0.549-0.055-0.951-0.544-0.896-1.094l1.13-11.412    c0.055-0.549,0.536-0.94,1.094-0.896c0.549,0.055,0.951,0.544,0.896,1.094l-1.13,11.412C10.127,43.511,9.692,43.896,9.184,43.896z    "/><path d="M13.462,44.477c-0.033,0-0.066-0.002-0.1-0.005l-8.587-0.85c-0.549-0.055-0.951-0.544-0.896-1.094    c0.055-0.549,0.541-0.939,1.094-0.896l8.587,0.85c0.549,0.055,0.951,0.544,0.896,1.094C14.405,44.091,13.97,44.477,13.462,44.477z    "/><path d="M16.048,22.135c-0.504,0-1.052-0.108-1.639-0.325c-0.626-0.23-1.185-0.52-1.725-0.799    c-1.408-0.729-2.262-1.119-3.465-0.679l-0.226,0.083c-1.232,0.454-2.768,1.021-4.347,0.333c-0.609-0.266-1.121-0.671-1.616-1.063    C2.457,19.23,1.915,18.8,1.383,18.738c-0.548-0.063-0.942-0.56-0.878-1.108c0.063-0.548,0.564-0.941,1.108-0.878    c1.098,0.127,1.928,0.785,2.66,1.366c0.413,0.327,0.803,0.636,1.173,0.798c0.842,0.368,1.819,0.005,2.854-0.377l0.231-0.085    c2.088-0.764,3.673,0.056,5.072,0.781c0.508,0.263,0.988,0.511,1.497,0.699c0.555,0.204,1.006,0.254,1.308,0.145    c0.345-0.126,0.679-0.395,1.032-0.68c0.344-0.278,0.7-0.565,1.137-0.792c0.822-0.428,2.925-0.666,3.843,0.433    c0.354,0.423,0.298,1.054-0.125,1.409c-0.423,0.354-1.054,0.298-1.409-0.125c-0.189-0.117-1.08-0.103-1.385,0.058    c-0.261,0.136-0.525,0.349-0.805,0.575c-0.443,0.357-0.945,0.763-1.602,1.003C16.771,22.076,16.421,22.135,16.048,22.135z"/></g></g></svg>