<svg xmlns="http://www.w3.org/2000/svg" xmlns:xlink="http://www.w3.org/1999/xlink" version="1.1" x="0px" y="0px" viewBox="0 0 72 72" enable-background="new 0 0 72 72" xml:space="preserve"><g><g><path fill="#000000" d="M71.3,41.5l-7.8-7.8c-0.4-0.4-1-0.1-1,0.4v5.1c0,0.3-0.3,0.6-0.6,0.6h-7.1c-2.3,0-4.2,1.9-4.2,4.2v9.2    c0,0.4-0.3,0.7-0.7,0.7H39.2c-2.3,0-4.2,1.9-4.2,4.2v8.2c0,0.4-0.3,0.7-0.7,0.7H18.9c-1.3,0-2.3,1.1-2,2.4c0.2,1,1.1,1.7,2.2,1.7    h15.8c2.3,0,4.2-1.9,4.2-4.2v-8.2c0-0.4,0.3-0.7,0.7-0.7h10.7c2.3,0,4.2-1.9,4.2-4.2v-9.2c0-0.4,0.3-0.7,0.7-0.7h6.5    c0.3,0,0.6,0.3,0.6,0.6v5.1c0,0.5,0.6,0.8,1,0.4l7.8-7.8C71.6,42.1,71.6,41.8,71.3,41.5z"/><g><circle fill="#000000" cx="33.7" cy="6.6" r="5.9"/></g></g><g><path fill="#000000" d="M54.8,14.1c-1.1-1.1-2.8-1.3-4.1-0.5l-8.1,4.9c-0.4,0.3-0.9,0.3-1.4,0.1l-2.3-1.1    c-0.2-0.1-0.4-0.3-0.6-0.5c-1.2-1.9-3.4-3.3-5.9-3.3c-2,0-3.8,0.8-5.1,2.1c-0.1,0.1-0.2,0.1-0.2,0.2L27,16.1    c-0.3,0.1-0.6,0.2-0.9,0.4l-11,7.7c-0.4,0.3-0.7,0.6-0.9,1l-4.3,7.3c-0.4,0.7-0.5,1.4-0.4,2.1l-0.6-0.2c-0.1,0-0.2,0-0.3,0.1    l-0.5,1.7c0,0.1-0.1,0.2-0.3,0.1l-3.3-1c-0.4-0.1-0.8,0.1-0.9,0.5l-3.1,10c-0.1,0.4,0.1,0.8,0.5,0.9L14.8,51    c0.4,0.1,0.8-0.1,0.9-0.5l3.1-10c0.1-0.4-0.1-0.8-0.5-0.9l-3.3-1c-0.1,0-0.2-0.1-0.1-0.3l0.5-1.7c0-0.1,0-0.2-0.1-0.3l-0.2-0.1    c0.2-0.2,0.3-0.3,0.4-0.6l3.9-6.6c0-0.1,0.1-0.2,0.2-0.2l5-3.5c0,0,0,0,0,0l0.3-0.2l0,0c0.2-0.2,0.6,0,0.6,0.3l-0.1,6.7    c0,1.5,0.4,2.9,1.2,4.1c0,0.1,0.2,0.2,0.4,0.5l-5.5,23.4c-0.3,1.5,0.3,3,1.6,3.7c0.5,0.3,1,0.4,1.5,0.4c1.5,0,2.8-1,3.1-2.5    l5.3-22.5c0,0,0.1,0,0.1-0.1c1.3-0.1,2.4-0.6,3.4-1.3c0.2-0.1,0.4-0.2,0.6,0c0.9,0.5,3.5,1.9,4.3,2.4c0.2,0.1,0.3,0.3,0.3,0.5    l0.5,7.8c0.1,1.7,1.5,3,3.2,3c0.1,0,0.1,0,0.2,0c1.8-0.1,3.2-1.7,3-3.5L48,38.4c-0.1-1.1-0.7-2.1-1.7-2.6l-6.5-3.6    c-0.3-0.2-0.6-0.6-0.6-1l0.1-5.6c0-0.3,0.4-0.6,0.7-0.4l0.6,0.3c1,0.5,2.2,0.4,3.1-0.1l10.3-6.3C55.8,18.1,56.3,15.7,54.8,14.1z     M13.8,38.1c0,0.1-0.1,0.1-0.2,0.1l-4.4-1.4c-0.1,0-0.1-0.1-0.1-0.2L9.3,36c0-0.1,0.1-0.1,0.2-0.1L9.9,36c0.3,0.4,0.6,0.7,1,1    c0.5,0.3,1.1,0.4,1.6,0.4c0.4,0,0.8-0.1,1.2-0.3l0.1,0c0.1,0,0.1,0.1,0.1,0.2L13.8,38.1z"/></g></g></svg>