<svg xmlns="http://www.w3.org/2000/svg" xmlns:xlink="http://www.w3.org/1999/xlink" version="1.1" x="0px" y="0px" viewBox="0 0 48 48" enable-background="new 0 0 48 48" xml:space="preserve"><g><circle fill="#000000" cx="27.4" cy="5.7" r="5.2"/><path fill="#000000" d="M43,26.4c0.8-0.9,0.7-2.3-0.3-3.1l-10.8-9l-8.8-0.8l-12.2,6l2.9,9.4c0.3,1,1.2,1.6,2.1,1.6   c0.2,0,0.4,0,0.7-0.1c1.2-0.4,1.8-1.6,1.5-2.8l-1.8-5.7l4.4-2.2l0.1,10.1L5.4,41.3c-1,0.7-1.2,2.1-0.4,3.1c0.7,1,2.1,1.2,3.1,0.4   l17.3-13l3.9,0l7.7,3.8l-4.2,8.6c-0.5,1.1-0.1,2.4,1,3c0.3,0.2,0.7,0.2,1,0.2c0.8,0,1.6-0.5,2-1.2L43,33.6l-10-4.9l0-7.8l7,5.8   C40.8,27.5,42.2,27.4,43,26.4z"/></g></svg>