<svg xmlns="http://www.w3.org/2000/svg" xmlns:xlink="http://www.w3.org/1999/xlink" version="1.1" x="0px" y="0px" viewBox="0 0 48 48" enable-background="new 0 0 48 48" xml:space="preserve"><g><circle fill="#000000" cx="11.7" cy="8.4" r="5.5"/><path fill="#000000" d="M45.9,35.7h-8.6c0.4-0.8,0.3-1.7-0.2-2.5c-3.4-5-6.6-7.8-9.8-8.4l2.3-3.4c0.8-0.4,1.4-1.3,1.4-2.2   c0,0,0,0,0-0.1l5.5-8.1c0.4-0.7,0.3-1.5-0.4-2c-0.6-0.4-1.5-0.3-2,0.4l-5,7.4c-0.2-0.1-0.4-0.1-0.6-0.1H12.9c-0.1,0-0.1,0-0.1,0   c-1.2-0.1-3.1,0.1-4.4,1.7c-1.8,2.2-0.8,4.1-0.8,4.1l5.7,13.2h-11c-0.8,0-1.4,0.6-1.4,1.4c0,0.8,0.6,1.4,1.4,1.4h12.5l-2.9,4.3   c-0.4,0.7-0.3,1.5,0.4,2c0.2,0.2,0.5,0.2,0.8,0.2c0.5,0,0.9-0.2,1.2-0.6l4-5.9h27.8c0.8,0,1.4-0.6,1.4-1.4   C47.3,36.4,46.6,35.7,45.9,35.7z M32.7,35.7H21.8l0.2-0.3c0-0.1,0-0.1,0.1-0.2c0.4-1.8,1.9-5.2,3.6-5.5   C26.3,29.6,28.6,29.7,32.7,35.7z M26,21.7l-2.3,3.4c-2,0.7-3.4,2.3-4.4,4L16,21.7H26z"/></g></svg>