<svg xmlns="http://www.w3.org/2000/svg" xmlns:xlink="http://www.w3.org/1999/xlink" version="1.1" x="0px" y="0px" viewBox="0 0 48 48" enable-background="new 0 0 48 48" xml:space="preserve"><g><circle fill="#000000" cx="39.7" cy="11.8" r="4.8"/><path fill="#000000" d="M47.2,21.9c-0.6-1-1.9-1.3-2.9-0.7c-2.7,1.7-6.4,3.4-8.8,2c-2.5-1.3-3.1-5.5-3.1-7.1c0-0.1,0-0.1,0-0.2   c-0.7-5.9-2.8-9.6-6.2-11.1c-5-2.2-10.5,1.8-10.8,2c-0.9,0.7-1.1,2-0.5,2.9c0.7,0.9,2,1.1,2.9,0.5c1-0.7,4.3-2.5,6.7-1.5   c1.4,0.6,2.3,2.2,2.9,4L19,13.9c-0.6,0.1-1.1,0.1-1.6,0.2l0,0l0,0c-2.1,0.4-3.9,1-5.1,2.1c-0.7,0.5-1.1,1.3-0.9,2.2   c2.7,12.9-9.4,21.2-9.9,21.5c-1,0.6-1.2,1.9-0.6,2.9c0.4,0.6,1.1,0.9,1.7,0.9c0.4,0,0.8-0.1,1.1-0.3c0.4-0.2,5.9-3.9,9.3-10.3   c3.8,1.1,6.7,1.6,8.8,1.6c2.5,0,3.9-0.7,4.7-2.2c1.4-2.7-1.5-6.9-5.6-10.9l8.1-0.7c0.7,2.2,2,4.6,4.4,6c1.2,0.7,2.5,1,4,1   c2.6,0,5.6-1,9-3.1C47.5,24.1,47.8,22.9,47.2,21.9z M22.7,30.4c-0.7,0.1-2.8,0.2-8-1.2c0.7-2,1.1-4.3,1.1-6.7   C19.5,25.8,22.3,29,22.7,30.4z"/></g></svg>