<svg xmlns="http://www.w3.org/2000/svg" xmlns:xlink="http://www.w3.org/1999/xlink" version="1.1" x="0px" y="0px" viewBox="0 0 48 48" enable-background="new 0 0 48 48" xml:space="preserve"><g><path fill="#000000" d="M38.9,21.1c0.1-0.7-0.1-1.5-0.7-2.1L27,9.4h-6.9l-9.9,12.4c-0.2,0.3-0.4,0.7-0.4,1l-0.1,0   C9.5,23.3,6,35.1,11.4,42.3c2.6,3.4,6.7,5.2,12.1,5.2c5.3,0,9.3-1.7,12.1-5.2C41.5,35,39.2,22.6,38.9,21.1z M33.3,40.5   c-2.2,2.7-5.4,4-9.8,4c-4.5,0-7.8-1.3-9.8-4c-3.4-4.5-2.4-11.9-1.7-15.2c0.6,0,1.2-0.3,1.6-0.8l5.8-7.2v3.5l-5.1,17.7   c-0.3,1.2,0.3,2.4,1.5,2.7c1.2,0.3,2.4-0.3,2.7-1.5L23,24.3h0.9l4.4,15.5c0.3,1,1.2,1.6,2.1,1.6c0.2,0,0.4,0,0.6-0.1   c1.2-0.3,1.9-1.6,1.5-2.7l-4.6-16.2V16l7.4,6.3c0.3,0.2,0.6,0.4,0.9,0.5C36.7,26.1,37.6,35.2,33.3,40.5z"/><circle fill="#000000" cx="23.5" cy="3.8" r="3.3"/></g></svg>