<svg xmlns="http://www.w3.org/2000/svg" xmlns:xlink="http://www.w3.org/1999/xlink" version="1.1" x="0px" y="0px" viewBox="0 0 48 48" enable-background="new 0 0 48 48" xml:space="preserve"><g><path fill="#000000" d="M16.5,13.2c3.7,1.5,6.9,1.6,9.6,0.3c1.5-0.7,2.6-1.8,3.4-2.8l5.5,2.3c-1.8,1.6-2.9,3.3-3.3,5.3   c-0.8,4.4,2.3,7.8,2.5,8c0.4,0.4,0.8,0.6,1.3,0.6c0.4,0,0.9-0.2,1.3-0.5c0.7-0.7,0.8-1.9,0.1-2.7c0,0-2-2.2-1.5-4.7   c0.4-2.4,3.9-3.3,5.4-5.2c2.2-2.9-0.8-4.7-0.8-4.7l-9.1-4c-0.5,0-2.2-0.5-3.3,1.8c0,0-0.8,2.2-2.9,3.2c-1.8,0.8-4,0.7-6.7-0.4   c-0.9-0.4-2,0.1-2.3,1.1C15.1,11.7,15.6,12.8,16.5,13.2z"/><ellipse fill="#000000" cx="23.2" cy="3.5" rx="2.9" ry="3"/><path fill="#000000" d="M46.1,34.2h-1.8v-4.2c0-0.8-0.6-1.5-1.4-1.5h-1.4h-7.1h-5.5c-0.8,0-1.4,0.7-1.4,1.5c0,0.8,0.6,1.5,1.4,1.5   h4.1v4.2V46c0,0.8,0.6,1.5,1.4,1.5h11.8c0.8,0,1.4-0.7,1.4-1.5V35.7C47.5,34.9,46.9,34.2,46.1,34.2z M35.7,31.6h5.6v2.7h-5.6V31.6z    M44.6,44.5h-8.9v-7.3h7.1h1.8V44.5z"/><path fill="#000000" d="M24.7,36.3c-1.4,0.1-2.6,0.7-3.8,1.2c-1.2,0.5-2.3,1-3.4,1c-0.9,0-1.9-0.4-3-0.9c-1.2-0.5-2.4-1-3.8-1.1   c-1.2-0.1-2.3,0.2-3.4,0.5c-0.5,0.1-1,0.3-1.5,0.4c-0.8,0.1-2.2,0.2-2.9-0.9l-2.4,1.7c1.2,1.8,3.3,2.6,5.8,2.2   c0.6-0.1,1.2-0.3,1.8-0.4c0.9-0.2,1.8-0.5,2.5-0.4c0.9,0,1.9,0.4,2.9,0.9c1.2,0.5,2.5,1.1,4,1.1c0.1,0,0.1,0,0.2,0   c1.6,0,3-0.6,4.4-1.2c1-0.4,2-0.9,3-1c1.4-0.1,2.8,0.4,3.9,1.6l2-2.1C29.2,37,26.9,36.1,24.7,36.3z"/><path fill="#000000" d="M24.7,42.4c-1.4,0.1-2.6,0.7-3.8,1.2c-1.2,0.5-2.4,1-3.4,1c-0.9,0-1.9-0.4-3-0.9c-1.2-0.5-2.4-1-3.8-1.1   c-1.2-0.1-2.3,0.2-3.4,0.5c-0.5,0.1-1,0.3-1.5,0.4c-0.8,0.1-2.2,0.2-2.9-0.9l-2.4,1.7c1.2,1.8,3.3,2.6,5.8,2.2   C6.9,46.3,7.5,46.1,8,46c0.9-0.2,1.8-0.5,2.5-0.4c0.9,0,1.9,0.4,2.9,0.9c1.2,0.5,2.5,1.1,4,1.1c0,0,0.1,0,0.1,0   c1.6,0,3-0.6,4.4-1.2c1-0.4,2-0.9,3-1c1.4-0.1,2.8,0.4,3.9,1.6l2-2.1C29.2,43,26.9,42.2,24.7,42.4z"/></g></svg>